<svg width="16" height="18" viewBox="0 0 20 21" fill="none" xmlns="http://www.w3.org/2000/svg">
<path d="M4.55474 7.73415C4.73031 7.99708 5.02386 8.14983 5.33216 8.14983C5.39276 8.14983 5.45392 8.14396 5.51485 8.13186C5.88579 8.05804 6.17585 7.76799 6.24959 7.39704L7.29135 2.15955C7.33965 1.91627 7.28954 1.66375 7.15171 1.45752C7.01391 1.25129 6.7998 1.10823 6.5566 1.05985L1.31916 0.018046C0.947927 -0.0558545 0.569182 0.101229 0.359134 0.415718C0.148966 0.730207 0.148966 1.14038 0.359134 1.45486L2.13471 4.11219C0.753391 5.86884 0 8.0347 0 10.2876C0 14.2641 2.35493 17.8624 5.9994 19.4549C6.12128 19.5082 6.24834 19.5334 6.37336 19.5334C6.73374 19.5334 7.07724 19.3238 7.23083 18.9724C7.43758 18.4992 7.22159 17.9478 6.74833 17.741C3.7852 16.4462 1.8705 13.5206 1.8705 10.2876C1.8705 8.66504 2.35139 7.09826 3.24157 5.76894L4.55474 7.73415Z" fill="white"/>
<path d="M17.8659 16.4625C19.2468 14.7059 20 12.5402 20 10.2876C20 6.31115 17.6451 2.71273 14.0006 1.1202C13.5274 0.913445 12.976 1.12944 12.7692 1.6027C12.5624 2.07596 12.7783 2.6273 13.2517 2.83417C16.2148 4.12902 18.1295 7.05466 18.1295 10.2876C18.1295 11.9099 17.6487 13.4766 16.7588 14.8058L15.4458 12.8408C15.2357 12.5263 14.8569 12.3692 14.4858 12.4432C14.1148 12.517 13.8247 12.807 13.751 13.1779L12.7091 18.4154C12.6607 18.6587 12.7109 18.9112 12.8488 19.1174C12.9866 19.3237 13.2007 19.4667 13.444 19.5151L18.6815 20.5568C18.7424 20.5689 18.8035 20.5748 18.8641 20.5748C18.8734 20.5748 18.8828 20.5747 18.8921 20.5744C19.3961 20.5602 19.8004 20.1471 19.8004 19.6396C19.8004 19.4311 19.7321 19.2385 19.6168 19.0829L17.8659 16.4625Z" fill="white"/>
</svg>
