<svg width="18" height="19" viewBox="0 0 18 19" fill="none" xmlns="http://www.w3.org/2000/svg">
<path d="M4.09927 6.96074C4.25728 7.19737 4.52148 7.33484 4.79895 7.33484C4.85349 7.33484 4.90853 7.32956 4.96336 7.31868C5.29721 7.25224 5.55827 6.99119 5.62463 6.65734L6.56221 1.9436C6.60569 1.72464 6.56059 1.49737 6.43654 1.31177C6.31252 1.12616 6.11982 0.997405 5.90094 0.953861L1.18724 0.0162414C0.853134 -0.050269 0.512264 0.0911062 0.323221 0.374146C0.13407 0.657186 0.13407 1.02634 0.323221 1.30938L1.92124 3.70097C0.678051 5.28195 0 7.23123 0 9.2588C0 12.8377 2.11944 16.0762 5.39946 17.5095C5.50915 17.5574 5.62351 17.5801 5.73602 17.5801C6.06037 17.5801 6.36952 17.3914 6.50775 17.0752C6.69382 16.6493 6.49943 16.1531 6.07349 15.9669C3.40668 14.8016 1.68345 12.1685 1.68345 9.25887C1.68345 7.79854 2.11625 6.38844 2.91742 5.19205L4.09927 6.96074Z" fill="#5286FA"/>
<path d="M16.0793 14.8163C17.3221 13.2354 18 11.2863 18 9.25888C18 5.68008 15.8806 2.44151 12.6005 1.00823C12.1746 0.822149 11.6784 1.01654 11.4922 1.44248C11.3061 1.86841 11.5005 2.36462 11.9265 2.5508C14.5933 3.71617 16.3165 6.34924 16.3165 9.25892C16.3165 10.719 15.8838 12.129 15.0829 13.3252L13.9012 11.5568C13.7121 11.2738 13.3712 11.1323 13.0372 11.1989C12.7033 11.2653 12.4423 11.5263 12.3759 11.8602L11.4382 16.5739C11.3947 16.7929 11.4398 17.0202 11.5639 17.2057C11.6879 17.3913 11.8806 17.5201 12.0996 17.5636L16.8134 18.5011C16.8682 18.512 16.9232 18.5174 16.9777 18.5174C16.9861 18.5174 16.9945 18.5172 17.0029 18.517C17.4565 18.5042 17.8204 18.1324 17.8204 17.6757C17.8204 17.488 17.7589 17.3147 17.6551 17.1747L16.0793 14.8163Z" fill="#5286FA"/>
</svg>
