<svg height="512pt" viewBox="0 -48 512 512" width="512pt" xmlns="http://www.w3.org/2000/svg"><path fill="#ffa502" d="m190.246094 225.515625c-1.683594 0-3.371094-.421875-4.890625-1.277344-3.15625-1.765625-5.109375-5.101562-5.109375-8.722656v-110.273437c0-3.621094 1.953125-6.957032 5.109375-8.722657 3.152343-1.769531 7.019531-1.699219 10.109375.191407l90.121094 55.136718c2.96875 1.816406 4.78125 5.050782 4.78125 8.53125 0 3.480469-1.8125 6.714844-4.78125 8.53125l-90.121094 55.136719c-1.601563.980469-3.410156 1.46875-5.21875 1.46875zm10-102.433594v74.59375l60.960937-37.296875zm0 0"/><path fill="#ffa502" d="m492 215.550781h-21.390625v-185.550781c0-16.539062-13.449219-30-30-30h-410.609375c-16.539062 0-30 13.460938-30 30v260.761719c0 16.539062 13.460938 30 30 30h281.75v75.238281c0 11.03125 8.980469 20 20 20h160.25c11.03125 0 20-8.96875 20-20v-160.449219c0-11.03125-8.96875-20-20-20zm-180.25 20v65.210938h-281.75c-5.511719 0-10-4.492188-10-10v-260.761719c0-5.511719 4.488281-10 10-10h410.609375c5.519531 0 10 4.488281 10 10v185.550781h-118.859375c-11.019531 0-20 8.96875-20 20zm180.25 160.449219h-160.25v-160.449219h160.25zm0 0"/><path fill="#ffa502" d="m140.679688 279.652344h-90.125c-5.523438 0-10-4.476563-10-10 0-5.523438 4.476562-10 10-10h90.125c5.519531 0 10 4.476562 10 10 0 5.523437-4.480469 10-10 10zm0 0"/><path fill="#ffa502" d="m175.746094 279.652344c-5.523438 0-10.007813-4.476563-10.007813-10 0-5.523438 4.476563-10 9.996094-10h.011719c5.523437 0 10 4.476562 10 10 0 5.523437-4.476563 10-10 10zm0 0"/><path fill="#ffa502" d="m384.070312 267.480469v-11.75c0-5.519531-4.480468-10-10-10-5.53125 0-10 4.480469-10 10v11.75c-11.648437 4.109375-20 15.238281-20 28.28125 0 13.039062 8.351563 24.167969 20 28.289062v51.769531c0 5.519532 4.46875 10 10 10 5.519532 0 10-4.480468 10-10v-51.769531c11.640626-4.121093 20-15.25 20-28.289062 0-13.042969-8.359374-24.171875-20-28.28125zm-10 38.300781c-5.519531 0-10-4.5-10-10.019531 0-5.523438 4.480469-10.011719 10-10.011719 5.507813 0 10 4.488281 10 10.011719 0 5.519531-4.492187 10.019531-10 10.019531zm0 0"/><path fill="#ffa502" d="m454.070312 307.5v-51.769531c0-5.519531-4.480468-10-10-10-5.53125 0-10 4.480469-10 10v51.769531c-11.648437 4.121094-20 15.25-20 28.289062 0 13.039063 8.351563 24.171876 20 28.289063v11.742187c0 5.519532 4.46875 10 10 10 5.519532 0 10-4.480468 10-10v-11.742187c11.640626-4.117187 20-15.25 20-28.289063 0-13.039062-8.359374-24.167968-20-28.289062zm-10 38.300781c-5.519531 0-10-4.492187-10-10.011719 0-5.519531 4.480469-10.007812 10-10.007812 5.507813 0 10 4.488281 10 10.007812 0 5.519532-4.492187 10.011719-10 10.011719zm0 0"/></svg>