<?xml version="1.0" encoding="iso-8859-1"?>
<!-- Generator: Adobe Illustrator 19.0.0, SVG Export Plug-In . SVG Version: 6.00 Build 0)  -->
<svg version="1.1" id="Layer_1" xmlns="http://www.w3.org/2000/svg" xmlns:xlink="http://www.w3.org/1999/xlink" x="0px" y="0px"
	 viewBox="0 0 469.389 469.389" style="enable-background:new 0 0 469.389 469.389;" xml:space="preserve">
<g>
	<g>
		<g>
			<path fill="#9c88ff" d="M298.841,181.287h106.347c5.333,0,10.133-3.84,10.88-9.067c0.96-6.613-4.16-12.267-10.56-12.267h-80.96l141.867-141.76
				c4.053-4.267,3.947-10.987-0.213-15.04c-4.16-3.947-10.667-3.947-14.827,0l-141.867,141.76V74.941
				c0-5.333-3.84-10.133-9.067-10.88c-6.613-0.96-12.267,4.16-12.267,10.56v96C288.174,176.487,292.974,181.287,298.841,181.287z"/>
			<path fill="#9c88ff" d="M170.841,287.954H64.494c-5.333,0-10.133,3.84-10.88,9.067c-0.96,6.613,4.16,12.267,10.56,12.267h80.96L3.268,451.047
				c-4.267,4.053-4.373,10.88-0.213,15.04c4.16,4.16,10.88,4.373,15.04,0.213c0.107-0.107,0.213-0.213,0.213-0.213l141.867-141.76
				v69.867c0,5.333,3.84,10.133,9.067,10.88c6.613,0.96,12.267-4.16,12.267-10.56v-96
				C181.508,292.754,176.708,287.954,170.841,287.954z"/>
			<path fill="#9c88ff" d="M324.548,309.287h80.533c5.333,0,10.133-3.84,10.88-9.067c0.96-6.613-4.16-12.267-10.56-12.267h-106.56
				c-5.867,0-10.667,4.8-10.667,10.667v95.68c0,5.333,3.84,10.133,9.067,10.88c6.613,0.96,12.267-4.16,12.267-10.56v-70.293
				l141.76,141.76c4.267,4.053,10.987,3.947,15.04-0.213c3.947-4.16,3.947-10.667,0-14.827L324.548,309.287z"/>
			<path fill="#9c88ff" d="M169.241,64.061c-5.227,0.747-9.067,5.547-9.067,10.88v69.867L18.415,3.047C14.148-1.006,7.428-0.899,3.374,3.261
				c-3.947,4.16-3.947,10.667,0,14.827l141.76,141.867h-80.64c-5.333,0-10.133,3.84-10.88,9.067
				c-0.96,6.613,4.16,12.267,10.56,12.267h106.667c5.867,0,10.667-4.8,10.667-10.667v-96
				C181.508,68.221,175.855,63.101,169.241,64.061z"/>
		</g>
	</g>
</g>
<g>
</g>
<g>
</g>
<g>
</g>
<g>
</g>
<g>
</g>
<g>
</g>
<g>
</g>
<g>
</g>
<g>
</g>
<g>
</g>
<g>
</g>
<g>
</g>
<g>
</g>
<g>
</g>
<g>
</g>
</svg>
